<svg id="Capa_1" data-name="Capa 1" xmlns="http://www.w3.org/2000/svg" viewBox="0 0 500 500"><defs><style>.cls-1{fill:#fff;}</style></defs><title>Logo</title><path class="cls-1" d="M250,0C111.93,0,0,111.93,0,250S111.93,500,250,500,500,388.07,500,250,388.07,0,250,0ZM29.52,250.74,65,284.39a.8.8,0,0,0,.21.15,7.48,7.48,0,0,1,3.27,3.1,6.14,6.14,0,0,1,.56,3.84,6.83,6.83,0,0,1-2.45,4.09,5.53,5.53,0,0,1-3.66,1.32,7.85,7.85,0,0,1-1.26-.11A5.59,5.59,0,0,1,59,295.5L14.92,257.14l-.3-.27-.18-.12h0l-.15-.11a8.68,8.68,0,0,1,0-13.26,1,1,0,0,1,.16-.12h0a.71.71,0,0,0,.18-.12l.31-.27,44-38.3a5.58,5.58,0,0,1,2.71-1.33h0a5.71,5.71,0,0,1,4.91,1.21A6.75,6.75,0,0,1,69,208.53a6,6,0,0,1-2.08,5.74c-3,2.56-5.91,5.11-8.75,7.8l-28.67,27.2A1,1,0,0,0,29.52,250.74ZM227.19,263l-2.13.67a6.88,6.88,0,0,1-2.57.23L146,264l-19.31,61,66.49.22q5.58,0,8.85,2.92a15.46,15.46,0,0,1,4.54,6.94,14.81,14.81,0,0,1-.34,10.08q-1.94,5-7.81,6.87l-2.13.68a6.89,6.89,0,0,1-2.57.22l-84.15.17h-.8c-4.13-.06-7.41-1-9.82-2.76a13.42,13.42,0,0,1-5-6.94,14.2,14.2,0,0,1-.66-3.75c0-.13,0-.27,0-.4s0-.47,0-.7,0-.36,0-.54a13.43,13.43,0,0,1,.79-3.52l.55-1.73L151,156.53q1.66-5.32,5.45-7.56a15.4,15.4,0,0,1,7.13-2.21,0,0,0,0,1,0,0,12.62,12.62,0,0,1,1.74,0l85.38.27q5.57,0,8.85,2.93a15.46,15.46,0,0,1,4.54,6.93,14.9,14.9,0,0,1-.34,10.09q-1.93,5-7.81,6.87l-2.14.67a6.86,6.86,0,0,1-2.57.23l-77,.15-19.32,61,67,.22q5.56,0,8.85,2.93a15.46,15.46,0,0,1,4.54,6.93,14.9,14.9,0,0,1-.34,10.09Q233.07,261.1,227.19,263ZM406.65,161.84a6.92,6.92,0,0,1-.56,2.52L349.83,342.09q-1.95,5.88-5.59,8.53a13.79,13.79,0,0,1-11,2.35l-82.57.17c-4.13-.06-7.41-1-9.82-2.76a13.42,13.42,0,0,1-5-6.94,14.82,14.82,0,0,1,.65-10.48,12.65,12.65,0,0,1,8.39-7.35,13.67,13.67,0,0,1,4.79-.63l76,.25,53.84-168.7q1.68-5.32,5.46-7.56a15.44,15.44,0,0,1,8-2.24,14.82,14.82,0,0,1,9.51,3.36q4.2,3.36,4.2,9.51Zm79.07,94.8-.15.11h0l-.18.12-.3.27L441,295.5a5.59,5.59,0,0,1-2.67,1.28,7.85,7.85,0,0,1-1.26.11,5.53,5.53,0,0,1-3.66-1.32,6.83,6.83,0,0,1-2.45-4.09,6.14,6.14,0,0,1,.56-3.84,7.48,7.48,0,0,1,3.27-3.1.8.8,0,0,0,.21-.15l35.46-33.65a1,1,0,0,0,0-1.47l-28.67-27.2c-2.84-2.69-5.8-5.24-8.75-7.8a6,6,0,0,1-2.08-5.74,6.75,6.75,0,0,1,2.46-4.08,5.71,5.71,0,0,1,4.91-1.21h0a5.58,5.58,0,0,1,2.71,1.33l44,38.3.31.27a.71.71,0,0,0,.18.12h0a1,1,0,0,1,.16.12,8.68,8.68,0,0,1,0,13.26Z"/></svg>